<mxfile host="app.diagrams.net" modified="2023-10-04T12:37:57.119Z" agent="Mozilla/5.0 (Macintosh; Intel Mac OS X 10_15_7) AppleWebKit/537.36 (KHTML, like Gecko) Chrome/117.0.0.0 Safari/537.36" version="21.3.7" etag="lYhj6pAo0ZxPELL-AtSa" type="github">
  <diagram name="페이지-1" id="Jue-aBg1DdznZB8iotZ6">
    <mxGraphModel>
      <root>
        <mxCell id="0" />
        <mxCell id="1" parent="0" />
      </root>
    </mxGraphModel>
  </diagram>
</mxfile>
